<svg xmlns="http://www.w3.org/2000/svg" viewBox="0 0 274.51 337.3"><rect x="199.69" y="87.56" width="23.28" height="13.97" transform="translate(-4.96 177.12) rotate(-45)" fill="#068ecd"/><rect x="183.24" y="71.1" width="23.29" height="13.97" transform="translate(1.86 160.66) rotate(-45)" fill="#068ecd"/><rect x="216.15" y="104.02" width="23.28" height="13.97" transform="translate(-11.77 193.59) rotate(-45)" fill="#068ecd"/><path d="M224.5,124.18,208,140.64l-9.88-9.87,16.46-16.47L208,107.72l-16.47,16.46-9.87-9.88,16.46-16.46L186.63,86.31l4.94,4.94-16.46,16.46-9.88-9.87L181.7,81.37l-8.24-8.23L130.66,116a14,14,0,0,0,0,19.75l39.52,39.52a14,14,0,0,0,19.76,0l42.8-42.81Zm-49.39,19.76a9.31,9.31,0,1,1,0-13.18A9.33,9.33,0,0,1,175.11,143.94Z" fill="#068ecd"/><path d="M160.29,185.1l-39.51-39.52a27.89,27.89,0,0,1-4.94-6.66C99.55,157.54,70.76,191,61.5,204.85c-7.19,10.79-10,23.64-4.24,33.94L33.55,262.51l9.87,9.88,23.74-23.74c10.29,5.7,23.1,2.89,33.86-4.28,13.89-9.26,47.32-38.06,65.94-54.34A27.81,27.81,0,0,1,160.29,185.1Z" fill="#068ecd"/></svg>