<svg xmlns="http://www.w3.org/2000/svg" viewBox="0 0 274.51 337.3"><path d="M179.21,90.72H149.33c-5.33-.08-5.17,7.91,0,7.91h29.8v4H149.49c-5.41,0-5.25,7.91,0,7.91h29.72v4.12H149.49c-5.41,0-5.25,8,0,8h29.72v4H149.49c-5.33,0-5.25,7.91,0,7.91h29.72v4H149.49c-5.33,0-5.33,8,0,7.91h29.72v4H149.49c-5.33-.08-5.33,7.91,0,7.91h29.72v4H149.49c-5.33,0-5.33,7.91,0,7.91h29.72v4H149.49c-5.33,0-5.25,8,0,8h29.72v77.12c-.08,11.79,17.93,11.63,17.93,0V78.85c0-5.33-4.44-12.12-11.79-12.12l-36-.08c-5.33.08-5.17,8,0,8h29.8v4h-29.8c-5.33,0-5.17,8,0,7.91h29.8v4.2Z" fill="#068ecd"/><path d="M144.73,246.58c-1,6.54,1.21,18.25,5.81,22.53,4.85,4.44,10.58-1.21,8.24-5.81s-5.41-7-2.91-17.85l-11.14,1.13Z" fill="#068ecd"/><path d="M135.2,208.54V156l-9.94-86.49c-.32-2.34-1.69-2.91-3.07-2.91s-2.74.49-3,2.91L109.52,156v52.57c-18.34-9.52-32.07,5.33-32.15,18.82.08,12,9,22,21.65,22s21.32-11.15,21.32-22V174.55h4v52.81c0,12.52,10.18,21.81,21,21.81,13.65,0,22.29-9.61,22.29-21.73C167.74,213.79,153.53,199,135.2,208.54Zm-36.43,29.8a10.78,10.78,0,1,1,0-21.56,10.78,10.78,0,1,1,0,21.56Zm47.49,0a10.78,10.78,0,1,1,10.82-10.82A10.8,10.8,0,0,1,146.26,238.34Z" fill="#068ecd"/></svg>