<svg xmlns="http://www.w3.org/2000/svg" viewBox="0 0 298.19 379.96"><path d="M282.47,206.55l7.08-.06a8.81,8.81,0,0,0,8.6-8.84l0-46.36a8.84,8.84,0,0,0-8.81-8.84l-14.14,0c2.07-2.33,3.91-4.44,5.47-6.31.16-.11.46-.28.68-.41a17.85,17.85,0,0,0,2-1.3c.37-.28.85-.6,1.36-1,3.43-2.36,6.18-4.4,7.79-7.35a12.71,12.71,0,0,0,.52-11,14.36,14.36,0,0,0-6.11-6.86,8.8,8.8,0,0,0-.69-3.2C272.43,71.6,247.6,45.15,216.36,30.5l-1.72-.84h-2a6.79,6.79,0,0,0-.9.05A57.55,57.55,0,0,0,189.32,10a75,75,0,0,0-33.74-7.6c-2,0-4.15.07-6.3.21l-1-.31c-.86-.27-1.75-.55-2.65-.74A76.33,76.33,0,0,0,130.18,0a70.33,70.33,0,0,0-41.6,13.24C79.66,19.84,73.43,27.92,70,37.35a9.08,9.08,0,0,0-3,1.13,99.83,99.83,0,0,0-12.48,9,146.87,146.87,0,0,0-41.95,57.76A9,9,0,0,0,12,110a13.31,13.31,0,0,0-5.24,8.88,13.61,13.61,0,0,0,4.4,11.8c1.7,1.59,3.42,3.15,5.09,4.62a10,10,0,0,0,3.28,1.92c1.35,1.73,2.7,3.46,4,5.21l-14.77,0A8.77,8.77,0,0,0,0,151.19v46.68a8.8,8.8,0,0,0,8.81,8.78l7.49,0q3.87,5.53,7.77,11.08a13.86,13.86,0,0,0,3.67,3.52,9.15,9.15,0,0,0,5.18,1.6,9.62,9.62,0,0,0,1.34-.09,9.74,9.74,0,0,0,2.46-.73,12.13,12.13,0,0,0,3.66,7.78l.09.1a11.25,11.25,0,0,0,8.09,3.85h.53a33,33,0,0,0,5.63-.92,8.93,8.93,0,0,0-.6,2.09A14.35,14.35,0,0,0,61,250,10.73,10.73,0,0,0,65,251.46v3.21a25.06,25.06,0,0,0-7.92-3.36,32.09,32.09,0,0,0-7.64-.87,51.66,51.66,0,0,0-12.74,1.78,52.26,52.26,0,0,0-15.18,6.51,39.3,39.3,0,0,0-10.94,10.1,28.33,28.33,0,0,0-5.19,11.76,81.89,81.89,0,0,0-.73,12.47v19.63c0,8.05.9,13.7,2.84,17.79,1.81,3.81,5.84,8.62,14.74,9.91a33.16,33.16,0,0,0,4.67.32,59.13,59.13,0,0,0,14.68-2.16,54.2,54.2,0,0,0,18.7-8.4,34.42,34.42,0,0,0,9.83-10.24,22.72,22.72,0,0,0,1.6,1.67,21,21,0,0,0,5.11,3.5,43.93,43.93,0,0,0-7.74,3.82,26.45,26.45,0,0,0-8.31,7.77,15,15,0,0,0-2.64,10.55A33.25,33.25,0,0,0,60.61,355q2.1,5,4.15,9.94c1.94,4.66,4.18,8,6.88,10.28,3.07,2.56,7.2,3.86,12.26,3.85h.34A49.54,49.54,0,0,0,97.7,376.7a42.6,42.6,0,0,0,12.68-5.77,25.67,25.67,0,0,0,5.25-4.76h0a24.85,24.85,0,0,0,9.79,3.17,45.08,45.08,0,0,0,6.34.42c1.55,0,3.21-.07,4.94-.2a47.18,47.18,0,0,0,10.06-1.71,24.05,24.05,0,0,0,8.69-4.42,19.13,19.13,0,0,0,1.47-1.33l-.45,6,8.49.63c4.91.36,9.85.92,14.71,1.67l8.39,1.28.79-5.1a22.67,22.67,0,0,0,6.31,5.68A48.45,48.45,0,0,0,207,377.53a50.06,50.06,0,0,0,11.79,2.36c.8.05,1.58.07,2.31.07a18,18,0,0,0,8.92-2c3.12-1.73,5.6-4.73,7.37-8.93a21.57,21.57,0,0,0,1.83-8l3.82-9c2.05-4.77,2.44-8.85,1.2-12.47a16.41,16.41,0,0,0-4.91-6.83v-.76l1.1.75a58.47,58.47,0,0,0,17.85,7.65,53.92,53.92,0,0,0,13.65,2,34.73,34.73,0,0,0,3.58-.18c6.57-.65,11.36-3,14.23-6.94,2.55-3.5,3.74-8.42,3.74-15.47,0-8.58-1.74-15.63-5.19-20.94l-.29-.44,2.74.87V284.94c0-7-.91-12.28-2.78-16.23-2-4.17-5.67-8.1-11-11.66a55.65,55.65,0,0,0-17.4-7.53,48.93,48.93,0,0,0-12-1.64,32.7,32.7,0,0,0-5,.37,26.46,26.46,0,0,0-4.08.95,16.29,16.29,0,0,0,6.34-10.14,11,11,0,0,0-.78-6.16,17.94,17.94,0,0,0,3.83.46,10.92,10.92,0,0,0,7.94-3.11l.14-.14c1.14-1.13,4.22-4.2,4.32-8.68a11.37,11.37,0,0,0,5.14,1.34,9.94,9.94,0,0,0,5.47-1.65,8.7,8.7,0,0,0,1,8.45,8.65,8.65,0,0,0,8.66,8.49h0a8.89,8.89,0,0,0,2.73-.42,9.22,9.22,0,0,0,2.38.32,8.7,8.7,0,0,0,7.12-3.69,8.92,8.92,0,0,0,1.54-4.18,8.76,8.76,0,0,0-3.64-13.69,8.77,8.77,0,0,0-15.34.13l-.32.17c2.24-2.92,4.36-5.88,6.42-8.77ZM255.76,103.4l3.32,6.82.12.26-24.8,0a129.72,129.72,0,0,0,3.37-25.72c0-2.17-.07-4.3-.24-6.37.44.5.86,1,1.26,1.52l.16.2,4.25,4.79,4.91,6.54,3.65,5.19ZM69.61,73.4c.44,1.25.94,2.52,1.44,3.79.71,1.81,1.37,3.52,1.8,5a79.93,79.93,0,0,1,3.09,17.34,13.64,13.64,0,0,1,0,1.69A9.32,9.32,0,0,0,71,104.52l-3.66,4.81a9.28,9.28,0,0,0-.69,1.07l-27.31.11,1.95-4.1,3.32-6.12,2.69-4.36,4.43-6.42,2.85-3.88,4.7-5.32L63.47,76l5.29-5.17C69,71.66,69.3,72.54,69.61,73.4ZM23.88,173.31l22.45.09q1.24,1.82,2.35,3.7,2.53,4.26,5.17,8.5h-30Q23.89,179.46,23.88,173.31Zm221.59,4.94c1-1.57,2.24-3.4,3.41-4.93q12.48,0,24.95.1c0,5.46,0,9.4,0,12.24-11.37,0-22.53-.07-33.31-.07C242.2,183.15,243.85,180.69,245.47,178.25ZM226.33,289.17v11.12l-1-.17v-21a27.18,27.18,0,0,0,1.92,6.18,31.47,31.47,0,0,0,2.48,4.55Zm2.72-33.6a20.29,20.29,0,0,0-3.72,9V249.47l3.17,1.13a11.28,11.28,0,0,0,3.76.62l.88,0a9.37,9.37,0,0,0,1.2-.16A18,18,0,0,0,229.05,255.57Z" fill="#fff"/><path d="M13.88,237.59a8.57,8.57,0,0,0,2.29.31l4.84-.05,2.49-4a8.48,8.48,0,0,0,1.27-4.25,8.66,8.66,0,0,0-3.93-13.27,8.77,8.77,0,0,0-14.13-.44A8.72,8.72,0,0,0,4.11,217L4,217.1A8.74,8.74,0,0,0,2.26,230a8.68,8.68,0,0,0,8.68,8.07A8.62,8.62,0,0,0,13.88,237.59Z" fill="#fff"/><path d="M173.73,218.24a162.08,162.08,0,0,1-24.06,15.86c-6.23,3.36-17.37,9.46-22.52.39a30,30,0,0,1-3.13-9.77.33.33,0,0,0-.3-.29l-3.44-.5c-12.57-1.84-21.33-9.55-24.72-21.82a84.18,84.18,0,0,1-2.5-16.06.51.51,0,0,0-.43-.46c-6.41-.85-12.92-5.4-12.54-12.66a4.31,4.31,0,0,1,1.51-3.25c.85-.68,1-.54.51.43a3.27,3.27,0,0,0,.33,3.08c1.93,3,5.87,2.09,8.25.12a.46.46,0,0,0,.18-.42l-2.4-27.18a.31.31,0,0,0-.16-.25c-7.88-4.17-11.58-13.48-11-22,.09-1.52.2-3,.3-4.5a.17.17,0,0,0-.14-.21c-2.56-.73-1.35-2.37-3.12-3.38a.56.56,0,0,1-.18-.83l3.68-4.83a.83.83,0,0,1,.59-.33l4-.41a.74.74,0,0,0,.6-.46,23,23,0,0,0,1.42-9.55A88.32,88.32,0,0,0,81,79.74c-.85-2.88-2.28-6.12-3.38-9.2A43.82,43.82,0,0,1,75.46,51c1.39-13.08,7.81-23.26,18.18-30.92C108,9.5,126.68,6.34,143.9,9.91c1.29.27,4,1.35,5,1.27,13-1,24.94.74,36.65,6.48s22.72,17.1,24,30.46a.48.48,0,0,0,.3.43c14.14,6.66,19.58,21.25,19.4,36.06-.14,12.3-3.31,25-6,36.11a41.45,41.45,0,0,0-1,8.46c-.06,2.66-.15,5.31-.25,8a44.41,44.41,0,0,1-4.35,18.08c-3.36,6.79-10.58,15-18.74,14.52a.23.23,0,0,0-.27.25l-.08,35.28a1.81,1.81,0,0,1-.61,1.34c-8.76,7.72-17.27,15.48-26.56,22.59a155.62,155.62,0,0,1-19.21,12.24.44.44,0,0,1-.31.06.57.57,0,0,1-.45-.27.31.31,0,0,1,.05-.41,213.77,213.77,0,0,0,22.3-22.54C173.88,218.14,173.87,218.13,173.73,218.24ZM92.85,77.94c-1.38,1.91-3.3,4.54-3.32,7-.07,6,.51,12.34.18,19.55a1.72,1.72,0,0,0-.12,1.06c0,.19.15.25.33.16,10.43-4.72,23.23-2.49,28.76,8.37a7.29,7.29,0,0,1,.66,1.78.37.37,0,0,0,.51.26,11.49,11.49,0,0,1,10,.12.3.3,0,0,0,.46-.17c6.06-13.83,21.34-14.94,33.92-10.82a18.05,18.05,0,0,0,2.13,1.08,13.34,13.34,0,0,1,2,1.16,15.81,15.81,0,0,0,6.92,2.61c.36,0,.43-.07.2-.35-1.8-2.2-4.08-4.77-4.38-7.71-.5-4.89.38-10.75.81-15.85.09-1.07.31-2.32-.52-3a.23.23,0,0,1,0-.32.25.25,0,0,1,.31-.09l6.83,3.39a1.58,1.58,0,0,1,.89,1.5l-.49,11.81a0,0,0,0,0,0,.05h.14c.09,0,.13,0,.14-.12l.8-11.63a.32.32,0,0,1,.42-.28,29.22,29.22,0,0,0,14.31,1s0,0,0,0h0s0,0-.05,0a52.64,52.64,0,0,1-15.33-5.13,67.27,67.27,0,0,0-13.79-5.88,124.16,124.16,0,0,0-25.15-2.61,48.51,48.51,0,0,0-17.26,3.27,9.32,9.32,0,0,1-3.26.58,44.49,44.49,0,0,1-14.22-2.18C99.56,74.5,95.79,72,92.46,66.38c-5.61-9.48-1.3-21.9,5.39-29.85a.26.26,0,0,0,.15.12c.09,0,.11.08.06.15-4.69,8.72-4.13,20.2,2,28.06,3,3.9,8,7.13,13.09,7.11.81,0,.84-.15.08-.44-3.73-1.45-6.44-2.86-9.06-5.9-4.28-5-5.88-12.55-4.88-19,2.28-14.78,16.32-21.16,30-20.81a102.48,102.48,0,0,1,10.87,1c3.94,1.05,6.68,1.86,8.24,2.42q4.67,1.68,13.17,5.46c10.74,6,21.61,9.64,33.72,6.43l2.18-.75c.41-.14.4-.23,0-.29a56.8,56.8,0,0,1-18.57-6q-10.32-5.14-20.63-10.32c-14.74-7.4-29.78-11.17-45.58-5.42-8.66,3.15-16.79,8.39-21.86,16-7.11,10.72-8.67,24.76.94,34.47,1.32,1.33,3.27,2.67,4.84,4a.35.35,0,0,1,0,.51A22.24,22.24,0,0,0,92.85,77.94Zm89.3-25.82a31.08,31.08,0,0,0,14,.43c.48-.09.48-.17,0-.22a94.88,94.88,0,0,1-21.63-5.28c-6.27-2.22-12.54-5-18.71-7.82a85.92,85.92,0,0,0-12.44-4.16A34,34,0,0,0,131.57,34c-12.07,1-21.92,10.57-19.82,23.24a20.63,20.63,0,0,0,4.35,9.63.16.16,0,0,0,.2,0,.15.15,0,0,0,.07-.18c-3.08-8.46-1-16.61,5.82-22.39a20,20,0,0,1,10-4.91c6-.86,13.3,1,19.38,3C160.52,45.38,171.43,49.67,182.15,52.12Zm-4.36,52.45.35,5.9a.57.57,0,0,0,.1.3,1.76,1.76,0,0,1,.5,1,.68.68,0,0,1-.65.72.57.57,0,0,0-.44.32,3.14,3.14,0,0,0-.2,2.33.47.47,0,0,0,.28.3l4.28,1.68a.39.39,0,0,0,.53-.34c.34-5-1.75-8.4-4.6-12.28C177.83,104.37,177.78,104.39,177.79,104.57Zm-72.11,32A11.85,11.85,0,0,1,91.28,131a1.52,1.52,0,0,1,.18-1.9q5.45-5.73,12.67-12.77a9.86,9.86,0,0,0,1.4-1.72.28.28,0,0,0-.13-.41c-1.3-.55-2.64-1.08-4-1.61a1.58,1.58,0,0,0-1.79.43q-7.45,7.13-12,12c-.94,1-1.57,1.79-1.33,3.26,1.36,8.23,9.69,12,17.29,9.6a8.19,8.19,0,0,0,2.22-1.07C106.25,136.43,106.21,136.36,105.68,136.56Zm33.17-16.09,6.15-6.9a.12.12,0,0,0,0-.15h0c-.29-.26-1.91,1.08-3.62,3l-.09.1c-1.71,1.93-2.86,3.69-2.56,3.95h0A.1.1,0,0,0,138.85,120.47ZM145.1,131c.73-.62,1.46-1.1,2.11-1.76q6.43-6.48,12.89-13.18a.35.35,0,0,0-.14-.57c-2.21-.7-4.93-1.94-7,.06-5.2,5.14-9.38,9.51-13.31,13.33a.44.44,0,0,0-.12.41c1.3,6.13,5.89,9.88,12,9.88,2.45,0,6.1-.82,8-2.62.2-.19.16-.24-.1-.16-.8.24-1.6.47-2.41.68-4.88,1.23-10.34-.87-12.09-5.83A.22.22,0,0,1,145.1,131Zm54.65,7a.43.43,0,0,0,.09.23c-1.06-5,.55-11.25,4.87-13.91a8.09,8.09,0,0,1,10.13,1.65,16.18,16.18,0,0,1,1.94,3c.2.42.31.4.32-.07a8.84,8.84,0,0,0-9.34-9c-4.77.37-7.41,3.47-9.86,7.38s0,7.06,1.78,10.39A.59.59,0,0,1,199.75,137.94Zm-76,8.95c-.23-.18-.29-.59-.17-1.25q1.67-8.89,4.08-17.62.7-2.54,1.28-5.11a1,1,0,0,0-.4-1.26,7.82,7.82,0,0,0-9.53.75.87.87,0,0,0-.32.68c-.08,6.35-2.34,11.94-4.27,17.9a6.13,6.13,0,0,1-2.37,3.55,24.9,24.9,0,0,1-18.09,2.81c-.17,0-.25,0-.23.2l1.51,21.67c0,.38.17.42.42.14,4.95-5.71,12.31-10.32,20.06-8.66a1.61,1.61,0,0,0,1.07-.05c.36-.18.36-.36,0-.5-4.56-1.78-7.12-3.37-7.84-8.67,0-.23,0-.25.18-.08,1.75,2.07,4.38,4.4,7.2,3.92,1.73-.29,3.33-2,4.69-2.78,4.22-2.49,8.44-2.7,13.17-1.59,1.12.26,1.19.1.19-.49C131.14,148.58,127.28,147.8,123.71,146.89Zm24.72,1.84a22.89,22.89,0,0,1-10.78-5.32c-.16-.14-.26-.1-.29.11a5.92,5.92,0,0,0,1.27,5.17c3.09,3.94,2.46,7.68.79,12.24a.28.28,0,0,0,.17.4,35.39,35.39,0,0,1,8.76,5.37c2.48,2.07,6.17,6.28,10.33,8q5.91,1.74,6.75-3.78.18-1.18.33-2.34a.16.16,0,0,1,.28-.09,5.37,5.37,0,0,1,1.13,2.12c1.87,6.85-2.74,12.55-9.09,14.62-6.72,2.19-12.34,1.72-19,.41a.79.79,0,0,0-.76.23,20.91,20.91,0,0,1-15.2,6.39,19,19,0,0,1-11.2-3.44c-1.35-.95-2.51-2.59-3.82-3.86a.5.5,0,0,0-.51-.13,42.4,42.4,0,0,1-8.67,1.41c-.2,0-.28.11-.27.31a84.7,84.7,0,0,0,1.7,10.1,33.38,33.38,0,0,0,4.78,11.63,8.7,8.7,0,0,0,2,3c9.29,8.53,22.82,8.1,33.75,3.5A92.24,92.24,0,0,0,160.23,203c7.19-5.59,13-11.18,17.1-19,.42-.79.36-.82-.17-.1-4.95,6.8-13.28,13.54-22.21,13.94a28.13,28.13,0,0,1-11.37-3.1,10.63,10.63,0,0,0,5.91.3A32.19,32.19,0,0,0,164.32,187c4.86-4.65,7-9.23,7.33-15.87q.33-7.32,0-14.51a.31.31,0,0,0-.38-.29,32.86,32.86,0,0,1-10.82.78.17.17,0,0,0-.2-.13,1,1,0,0,1,.69-.24c5.1.06,11.09-2.64,15.32-5.05.81-.46.76-.55-.11-.27A52.31,52.31,0,0,1,158,153.69l-7.15-1.41-.21-.21c-.1-.1-.08-.15.06-.17a2.33,2.33,0,0,1,.53,0,26.84,26.84,0,0,0,18-5.39c6.13-4.52,10.1-9.84,10.78-17.58a.54.54,0,0,1,.56-.49,39.13,39.13,0,0,1,6.72.95c1.31.3,3.24-1.12,4.45-1.61a.18.18,0,0,0,0-.35l-17.37-3.13c-.45-.09-.65.1-.6.56l.25,2a.47.47,0,0,0,.58.48,3.51,3.51,0,0,1,2.11.45.93.93,0,0,1,.49.91,17.89,17.89,0,0,1-5.57,11.6c-5.5,5.23-11.51,8.72-19.32,8.61C151,148.89,149.71,148.83,148.43,148.73Zm53.78-14.8c4.24-7.45,12.6-4.63,12,3.9a34.34,34.34,0,0,1-6.07,16.66c-2.19,3.29-6.22,7.39-10.64,5-.4-.21-.5-.1-.34.31,2.41,5.8,7.52,3.36,10.43-.07,3.84-4.52,7.67-11.56,7.91-17.68a47,47,0,0,0-.74-9.07,6.63,6.63,0,0,0-4.27-5.46c-4.77-1.89-7.38,2.59-8.46,6.32C201.89,134.37,202,134.39,202.21,133.93Zm-69.09,49.81c-5.34-4.13-11.35-6.13-17.61-2.59-1.52.86-3,1.74-4.54,2.65-.15.09-.15.17,0,.26a20.3,20.3,0,0,0,9.42,2.76c3.64.2,10-.18,12.74-2.71C133.27,184,133.27,183.86,133.12,183.74Z" fill="#057bc4"/><path d="M266.76,106.56l-3.5-7.18L258.92,92,255,86.39l-5.2-6.93-4.32-4.86a51.41,51.41,0,0,0-6.94-7.18L234,63.34A35.88,35.88,0,0,0,228,58.47a6.5,6.5,0,0,1-1.58-1.56,34.73,34.73,0,0,0-12.6-12.3.35.35,0,0,1-.14-.2l-1.14-6.14a.09.09,0,0,1,.12-.1c29.93,14,53.07,39.52,65.73,70.08.12.29,0,.46-.29.5-2.31.26-6.17,2.84-8.1,4.19-.14.11-.25.07-.32-.08Z" fill="#057bc4"/><path d="M68.37,60.24,63.43,64.1l-6,5.88-4.35,4.58L48,80.29l-3.14,4.28-4.64,6.71L37.29,96l-3.54,6.51-2.56,5.39-1.76,4.46a.43.43,0,0,1-.62.21c-2.64-1.6-5-3.13-8.15-3.68-.28,0-.36-.2-.25-.47A138,138,0,0,1,60,54a90.63,90.63,0,0,1,11.41-8.22c.23-.14.32-.07.28.19a100.85,100.85,0,0,0-1.51,11.92C70.06,59.25,69.09,59.45,68.37,60.24Z" fill="#057bc4"/><path d="M248.29,160.32a.25.25,0,0,0,.22.34l24.29,0c.46,0,.66-.23.6-.68l-1-8.84c0-.2.07-.29.26-.29l16.73.06a.34.34,0,0,1,.33.34l0,46.36a.35.35,0,0,1-.34.34l-10.84.09a.74.74,0,0,0-.61.32c-3.72,5.11-7.32,10.4-11.28,15.34-2.15,2.66-8.44-5.47-9.73-7.48a1,1,0,0,1,0-1.09l4.87-7.14a.14.14,0,0,0-.12-.22l-39.5.06a1.13,1.13,0,0,0-1,.67c-1.86,4.09-6.31,3-8.24-.24-2.41-4.1-.47-6.18,2.43-9.59q11.29-13.29,22.52-26.64,2.07-2.46,3.91-4.84a.61.61,0,0,1,.92-.06l1.07,1.06a.3.3,0,0,0,.49,0q12.1-14,23.41-28.66c1.18-1.52,2.29-3.41,3.55-5a.31.31,0,0,0-.24-.49l-43.41,0a.13.13,0,0,1-.11-.21l3.09-4.75a.21.21,0,0,1,.2-.11l41.9.08a1.9,1.9,0,0,0,1.35-.56c2-2,4.5-4.31,7.54-3.44,2.88.83,5.16,4.15,3.61,7-1,1.86-5,4.2-6.8,5.6-1,.78-2.71,1.39-3.94,2.87q-3.54,4.23-8.79,10c-5.65,6.21-11,12.51-16.5,18.71A4.34,4.34,0,0,0,248.29,160.32Zm-6.63-.38-3.23,4.6a.35.35,0,0,0,0,.4l.1.1a.43.43,0,0,0,.74,0l3-3.23a1.18,1.18,0,0,0,.22-1.26l-.24-.56C242.12,159.61,241.91,159.58,241.66,159.94Zm-15.61,31.58a6.37,6.37,0,0,0-1.24,2.3.25.25,0,0,0,.25.27q26.06,0,52.19.09c1.89,0,5,0,5-2.23q.12-4.65,0-23.15c0-4-3.79-3.86-6.7-3.87q-14.69-.08-29.35-.12a2.5,2.5,0,0,0-1.93.7,62.56,62.56,0,0,0-6,8Q232.37,182.64,226.05,191.52Zm10.6-23.26c.32.14.76-.15,1-.65s.15-1-.17-1.18-.76.16-1,.66S236.33,168.12,236.65,168.26Z" fill="#057bc4"/><path d="M36.11,198.15,41,205.21a1,1,0,0,1,0,1.11c-1.29,1.87-5.85,7.68-7.94,8a.68.68,0,0,1-.5-.11A5.65,5.65,0,0,1,31,212.78q-4.9-7-9.78-14a1.72,1.72,0,0,0-1.41-.73l-11,0a.27.27,0,0,1-.27-.27V151.18a.25.25,0,0,1,.26-.24l15.85,0a.27.27,0,0,1,.27.32l-1.36,9.13a.28.28,0,0,0,.28.32l22.85,0c.66,0,.8-.27.44-.83-1.36-2.08-2.72-4-4.06-5.82q-8.72-11.72-17.7-23.22a5.19,5.19,0,0,0-1-1c-.7-.51-1.91-.46-2.44-.93q-2.51-2.2-4.93-4.47a4.92,4.92,0,0,1,1-8.28c3.47-1.85,6.16.46,8.75,2.33a2.88,2.88,0,0,0,1.73.56l39-.16a1.1,1.1,0,0,1,.86.4c1.15,1.34,2.4,2.71,3.76,4.08.15.15.21.26.19.35a.36.36,0,0,1-.35.3q-18.32-.12-36.49,0c-1.56,0-5.87-.38-5.5,1.88a.45.45,0,0,0,.48.43h.18c.23,0,.32-.09.28-.31l-.11-.66a.51.51,0,0,1,.93-.35c9.39,14.7,19.63,28.49,30,42.3,6.11,8.12,13.31,18.16,17.92,24.37,2.79,3.76.72,9.48-4.22,9.6-2.58.06-2.52-3.36-4.45-3.34q-17.33.1-34.66-.12C36,197.77,35.94,197.9,36.11,198.15Zm16.4-38.43c.21-.11.2-.51,0-.89s-.55-.59-.75-.47-.2.51,0,.89S52.31,159.84,52.51,159.72Zm3.49,13a75.77,75.77,0,0,0-4.42-6.64,2.52,2.52,0,0,0-2.27-1.22l-29.49-.11c-3,0-4.46,1.46-4.45,4.41q0,9.45,0,18.91c0,3.23-.4,6,3.53,6q24.84,0,49.73,0c.4,0,.51-.17.34-.53a15.76,15.76,0,0,0-1.13-2Q61.67,182.33,56,172.76Z" fill="#057bc4"/><path d="M249.62,131.79q3.76,1,3.54,4.15a6.75,6.75,0,0,1-2,4.13c-3,3.23-7.2,4.17-11.59,4.2q-7,0-14,0c-.14,0-.2-.07-.17-.21l1.61-8.34a.23.23,0,0,1,.23-.18l10.09,0C242.07,136.13,246.44,136.14,249.62,131.79Z" fill="#057bc4"/><path d="M50.73,132c2.16,1.74,3.89,3.63,6.65,3.78a32.17,32.17,0,0,0,4.91-.2l9.46-.15a1.17,1.17,0,0,1,1.07.66,30.31,30.31,0,0,0,5.55,7.95.14.14,0,0,1-.11.24q-8.26,0-16.57,0c-4.49,0-9.1-1-12.29-4.58a6.89,6.89,0,0,1-1.91-3.8C47.31,134,48.4,132.67,50.73,132Z" fill="#057bc4"/><path d="M229.65,165.41l-10.23-.18a.21.21,0,0,1-.18-.31l2.95-5.84a.19.19,0,0,1,.18-.12l10.56.18a.21.21,0,0,1,.18.31l-3.28,5.85A.21.21,0,0,1,229.65,165.41Z" fill="#057bc4"/><path d="M65,159.16l15.6-.1a.18.18,0,0,1,.17.11l2.41,5.77a.19.19,0,0,1-.18.26l-15.17.11a.16.16,0,0,1-.16-.1l-2.84-5.79A.19.19,0,0,1,65,159.16Z" fill="#057bc4"/><path d="M148.79,205.4c.39,0,.47.11.22.46a1.24,1.24,0,0,1-.3.31c-7.56,5.86-16.85,10.57-26.76,8.42a12.71,12.71,0,0,1-3.13-1.08l-.88-.78a.19.19,0,0,1,.19-.33,14.22,14.22,0,0,0,4,.82A39.43,39.43,0,0,0,148.79,205.4Z" fill="#057bc4"/><path d="M203.59,213.1l3-5.11a.33.33,0,0,1,.38-.17c13.33,3.08,23.79,5.76,42.42,9.69,1.47.31,2.09,2,2.41,3.24s-1.06,2.63-1.91,3.48c-1.4,1.39-4.87.09-6.55-.3q-19.94-4.73-39.54-10.36A.32.32,0,0,1,203.59,213.1Z" fill="#057bc4"/><path d="M90.33,208.62l2.88,5.11a.28.28,0,0,1-.17.41c-4.56,1.22-9.19,2.58-13.62,3.68q-12.51,3.09-25,6.29a32.86,32.86,0,0,1-5.82,1.11c-.9.05-1.8-1.05-2.3-1.53-2-1.9-1.36-5.55,1.58-6.11q20.7-4,41.4-9.39A.84.84,0,0,1,90.33,208.62Z" fill="#057bc4"/><path d="M15.42,223.81l2.12.34c.52.09.56.28.12.58-1.18.79-2.48,2.1-1.76,3.51s.44,1.51-.68.53a4.53,4.53,0,0,0-1.83-.62,1.33,1.33,0,0,0-1.11.32l-1.21,1.08a.21.21,0,0,1-.33-.21l.56-1.75a1.1,1.1,0,0,0-.37-1.26l-2.09-1.72c-.23-.18-.24-.36,0-.52a.23.23,0,0,1,.16,0,7.06,7.06,0,0,0,2.54-.23.7.7,0,0,0,.46-.36l1.23-2.11c.28-.49.55-.48.79,0l1,2.14A.51.51,0,0,0,15.42,223.81Z" fill="#057bc4"/><path d="M282.6,228.25l-1,.76c-1.19.9-1.46.69-.79-.63a2.93,2.93,0,0,0,.33-1.47.55.55,0,0,0-.26-.48,8.54,8.54,0,0,1-2.06-1.87.18.18,0,0,1,.16-.29c2.13.26,3.33-.61,3.6-2.64.21-1.51.62-1.56,1.24-.18l.83,1.87a1.29,1.29,0,0,0,1,.76l1.92.23a.26.26,0,0,1,.14.46c-1.67,1.46-3,1.08-1.91,4,.22.63,0,.79-.56.49l-2.19-1.1A.41.41,0,0,0,282.6,228.25Z" fill="#057bc4"/><path d="M203.2,232.58a82.31,82.31,0,0,1-12-5.15.26.26,0,0,1-.07-.38l4.45-5.33a.54.54,0,0,1,.6-.16q16.94,6.18,33.86,12,2.67.92,5.29,1.92c3.09,1.18-.61,7.1-2.76,7.24a3.24,3.24,0,0,1-1.27-.12Q217.29,237.5,203.2,232.58Z" fill="#057bc4"/><path d="M105.69,229.23c-4.54,2-9.41,3.75-14.11,5.42q-14.07,5-23.68,8.18a2.82,2.82,0,0,1-2.5-.09,6,6,0,0,1-2.87-6.53.4.4,0,0,1,.27-.31l38.46-12.76a.64.64,0,0,1,.72.21l4,4.91A.63.63,0,0,1,105.69,229.23Z" fill="#057bc4"/><path d="M201.08,241.29c.9.38,1.79.79,2.66,1.25a.26.26,0,0,1,0,.45,1.09,1.09,0,0,1-.57.16,132.85,132.85,0,0,1-13.72,0c-3.39-.19-6.8-2-9.7-3.67a.41.41,0,0,1,0-.68,17.59,17.59,0,0,0,3.51-3.9.68.68,0,0,1,.7-.28,21.33,21.33,0,0,1,2.89.91Q194,238.34,201.08,241.29Z" fill="#057bc4"/><path d="M94.82,242.57l17.36-7.39a.71.71,0,0,1,.83.21l3.29,4a.17.17,0,0,1-.06.27c-3.33,1.53-5.37,3-9.59,3.34-3.8.28-7.62.39-11.43.32-.34,0-.54-.12-.59-.35A.33.33,0,0,1,94.82,242.57Z" fill="#057bc4"/><path d="M65.54,285.1q-11,2.13-21.88,4.82V278.24q0-5.1-.7-6.19c-.47-.72-1.49-.89-3.08-.48-1.79.46-2.92,1.27-3.41,2.42s-.72,3.43-.72,6.83V312q0,4.89.72,6.2c.49.87,1.57,1.08,3.26.64a4.34,4.34,0,0,0,3.18-2.3q.75-1.68.75-7.22v-8.44q10.89-2.7,21.88-4.82v2.62q0,10.44-1.89,15.17c-1.26,3.16-4,6.26-8.33,9.38a46.2,46.2,0,0,1-15.82,7.05C33,332,27.68,332.59,23.5,332s-6.93-2.3-8.28-5.15-2-7.55-2-14.14V293.06a74.93,74.93,0,0,1,.62-11.1,20,20,0,0,1,3.72-8.18,31,31,0,0,1,8.61-7.9,43.82,43.82,0,0,1,12.73-5.42c6.52-1.69,11.93-1.94,16.21-.89s7.09,3,8.44,5.68,2,7.2,2,13.47Zm60.37-38.4v46.4a65,65,0,0,1-.65,11.12,14.91,14.91,0,0,1-3.88,6.78,23.08,23.08,0,0,1-8.49,5.73,46.21,46.21,0,0,1-12.39,2.93,46,46,0,0,1-13.91-.28c-4-.8-7-2.1-9-4A10.89,10.89,0,0,1,74.08,309a132.05,132.05,0,0,1-.54-15.32V252.63q11.5-2,23.09-3.4v52.06c0,3,.2,4.94.58,5.74a2,2,0,0,0,2.32,1,2.84,2.84,0,0,0,2.58-1.68q.57-1.45.57-6.64V248.55Q114.28,247.32,125.91,246.7Zm9.11-.38q8-.25,16-.22c10.7.05,17.93.76,21.72,1.61a16.45,16.45,0,0,1,9.25,5.61c2.38,2.86,3.57,7.25,3.57,13.13,0,5.37-.84,8.9-2.52,10.62s-5,2.57-10,2.67c4.48,1.12,7.49,2.53,9,4.12a11.39,11.39,0,0,1,2.88,4.3q.55,1.89.56,10.25v18.2q-10.61-.89-21.23-1.25V292.29q0-5.58-1.14-6.94c-.75-.91-2.74-1.42-6-1.48v31.3q-11.13-.21-22.27.15ZM157.29,258v15.76c2.62,0,4.46-.18,5.51-.72s1.58-2.36,1.58-5.49v-3.89c0-2.25-.51-3.74-1.52-4.47S160,258,157.29,258Zm59.54-6.64v56q7,1.1,14,2.42v13q-18.49-3.5-37.17-5.4v-69Q205.29,249.55,216.83,251.34Zm65.43,36.4q-9.76-3.11-19.63-5.74v-5.25c0-2.45-.27-4.07-.8-4.89a4.24,4.24,0,0,0-2.64-1.69,2.9,2.9,0,0,0-3,.58c-.69.73-1,2-1,3.85a11.53,11.53,0,0,0,1.17,5.63c.73,1.38,2.84,3.35,6.29,6,9.89,7.51,16.07,13.47,18.61,17.38s3.82,9.37,3.82,16.3c0,5.05-.71,8.53-2.12,10.47s-4.14,3.08-8.19,3.48a40.9,40.9,0,0,1-14.23-1.55,50.76,50.76,0,0,1-15.3-6.51c-4.24-2.82-7-5.76-8.35-8.91s-2-7.38-2-12.69v-4.63q10,2,19.88,4.43v8.62q0,4,.87,5.33a5,5,0,0,0,3.1,1.92c1.48.38,2.58.19,3.31-.58s1.08-2.1,1.08-4q0-6.25-2.06-8.73c-1.41-1.65-4.88-4.71-10.44-9s-9.25-7.33-11.07-9.08a21.22,21.22,0,0,1-4.51-6.6,23.47,23.47,0,0,1-1.79-9.62q0-8.15,2.54-11.39c1.69-2.17,4.42-3.57,8.19-4.16a34.51,34.51,0,0,1,13.59,1.11,47.07,47.07,0,0,1,14.74,6.34c4.05,2.73,6.72,5.51,8,8.26s2,7,2,12.58Z" fill="#057bc4"/><path d="M108.49,343q-8.43,1.67-16.69,4c-.61-2.06-1.21-4.12-1.82-6.18-.53-1.79-1-2.86-1.56-3.2s-1.38-.33-2.65,0-2.24,1-2.44,1.63,0,1.87.58,3.65q2.69,8.18,5.31,16.36a7.51,7.51,0,0,0,1.57,3.2,2.75,2.75,0,0,0,2.53.1q1.71-.49,2-1.44t-.54-3.87l-1.29-4.47q8-2.26,16.2-3.87c.1.47.2.94.29,1.41.76,3.76.85,6.51.3,8.26s-2.17,3.51-4.81,5.37a34.46,34.46,0,0,1-10.18,4.56,42,42,0,0,1-11.15,2c-3.12,0-5.48-.56-7.06-1.88s-3.08-3.65-4.47-7-2.77-6.66-4.17-10A25.66,25.66,0,0,1,66.58,346,6.86,6.86,0,0,1,68,341.28a18.08,18.08,0,0,1,5.7-5.19,39.49,39.49,0,0,1,9.8-4.29A39.18,39.18,0,0,1,97,329.89c3.7.25,6.25,1.13,7.66,2.51s2.46,3.77,3.16,7.15Z" fill="#057bc4"/><path d="M153.55,322.73q-.15,12.36-.29,24.74a26.33,26.33,0,0,1-.53,5.91,7.44,7.44,0,0,1-2.67,3.49,16.31,16.31,0,0,1-5.71,2.83,39.62,39.62,0,0,1-8.28,1.38,44.35,44.35,0,0,1-9.46-.16,17,17,0,0,1-6.5-2,6.86,6.86,0,0,1-3-3.27,56,56,0,0,1-1.79-8q-1.89-10.78-3.85-21.57,9.12-1.56,18.33-2.39,1.33,13.81,2.6,27.64a6.87,6.87,0,0,0,.72,3.05,2,2,0,0,0,1.81.53c1-.08,1.63-.38,1.89-.89a8.65,8.65,0,0,0,.19-3.53q-.93-13.62-1.91-27.22Q144.3,322.62,153.55,322.73Z" fill="#057bc4"/><path d="M197.62,327.38q-.8,3.62-1.57,7.25-5.19-1-10.44-1.86Q183.23,347.38,181,362c-5.09-.78-10.22-1.36-15.36-1.74q1.1-14.77,2.27-29.53-5.26-.39-10.55-.54c.07-2.47.15-4.94.22-7.41A235.8,235.8,0,0,1,197.62,327.38Z" fill="#057bc4"/><path d="M234.67,350.15q-7.56-3-15.33-5.54c.29-.87.58-1.74.88-2.6.41-1.22.47-2.05.18-2.52a3.27,3.27,0,0,0-1.88-1.13,3.72,3.72,0,0,0-2.57,0,2.7,2.7,0,0,0-1.43,1.82,3.8,3.8,0,0,0,0,2.93c.37.76,1.73,1.95,4,3.61,6.54,4.78,10.16,8.49,11.36,10.71s1,5-.37,8.35c-1,2.44-2.25,4-3.66,4.81s-3.6,1-6.57.85a42.77,42.77,0,0,1-9.8-2,40.61,40.61,0,0,1-9.79-4.29c-2.61-1.66-4.22-3.29-4.79-5a12.38,12.38,0,0,1,0-6.57c.18-.79.36-1.58.53-2.37q7.5,1.62,14.87,3.78c-.43,1.44-.87,2.87-1.3,4.31a3.91,3.91,0,0,0-.17,2.74,3.23,3.23,0,0,0,1.94,1.21,3.35,3.35,0,0,0,2.49,0,3,3,0,0,0,1.45-1.88c.69-2.07.67-3.58-.1-4.53a42.37,42.37,0,0,0-6.46-5.43c-3.58-2.64-6-4.4-7.19-5.41a10,10,0,0,1-2.67-3.66,8.08,8.08,0,0,1-.28-5c.62-2.77,1.74-4.66,3.38-5.63s4.06-1.48,7.26-1.44a40.94,40.94,0,0,1,11.16,2,43.37,43.37,0,0,1,11.24,5c2.88,1.91,4.55,3.67,5.08,5.19s.19,3.65-1,6.36C235.05,349.25,234.86,349.7,234.67,350.15Z" fill="#057bc4"/></svg>