<svg xmlns="http://www.w3.org/2000/svg" viewBox="0 0 324.66 330.52"><path d="M145.13,94.68a23.58,23.58,0,1,1-23.58,23.58A23.58,23.58,0,0,1,145.13,94.68Z" fill="#068ecd"/><path d="M254.13,42.67c13.82,0,25,11.54,25,25.77S268,94.2,254.13,94.2s-25-11.53-25-25.76S240.31,42.67,254.13,42.67Z" fill="#068ecd"/><path d="M270.58,105.26c-9-7.35-24.75-3.26-32.55-1.06-9.06,3.48-26.13,7-45.93,6.91-4.44-6.67-26.1-37.38-26.1-37.38l-1.81-1.13,18.75,37.49,5,1.66v2.52l-.5-1.22-4.08-1.37c.49,2,.84,3.26,1,3.52,2.76,11.48-3.2,22.25-3.37,22.55a11.63,11.63,0,0,0-.93,11.46c2.53,5.73,8.78,8.57,13.91,6.31s7.25-8.79,4.71-14.54l0,0,.07,0-6.19-15.4,2.55-.43,7.13,14.65a4.33,4.33,0,0,0,.22.56c2.54,5.74,8.77,8.58,13.91,6.31s7.24-8.79,4.69-14.54a11.58,11.58,0,0,0-9.32-7,34.22,34.22,0,0,1-5-1.77c14.17-2,31.16-3.87,31-.77-.21,5.32-2.54,58.81-.47,60.59L233,222.78l3.77,39h-11v11.46h37.49V188.13c4.42-.87,7.78-3.21,8.37-8C273.38,164.94,280.64,113.46,270.58,105.26Zm-84.33,3.55a1.74,1.74,0,1,1,.89-2.29A1.75,1.75,0,0,1,186.25,108.81Zm9.34,33.51c1.8,4.08.44,8.65-3,10.18s-7.76-.54-9.56-4.63-.46-8.65,3-10.18S193.78,138.23,195.59,142.32Zm12.79-13.49c3.46-1.53,7.75.55,9.56,4.63s.45,8.65-3,10.18-7.76-.54-9.57-4.63S204.91,130.36,208.38,128.83Z" fill="#068ecd"/><path d="M187.13,101.56l-13.7-34.19-.31,2.23s2,8.52,4.38,18.18C180.76,92.44,184.24,97.4,187.13,101.56Z" fill="#068ecd"/><path d="M73.4,233.9c2.41.43,4.89.8,7.38,1.17l.78.11a322.79,322.79,0,0,0,34.73,3.31l1.95,0c1.4,0,2.77.06,4.14.07l1.18,0,1.42,0c.77,0,1.53,0,2.28,0l2.77-.09,2.17-.11,2.56-.18,2-.19c.81-.08,1.58-.18,2.34-.29s1.27-.15,1.86-.26c.75-.12,1.44-.26,2.14-.4s1.12-.21,1.64-.33c.69-.17,1.32-.36,2-.54.45-.14.93-.25,1.34-.4.66-.23,1.25-.49,1.83-.75.32-.15.66-.25,1-.41a12.73,12.73,0,0,0,2.22-1.37,6.09,6.09,0,0,0,.95-.95c.13-.15.24-.33.36-.5a7.78,7.78,0,0,0,.53-.76c.13-.23.26-.49.38-.75s.29-.52.43-.82.25-.6.37-.91.25-.61.37-.93.23-.69.34-1.06.23-.69.34-1.07.2-.76.3-1.14.22-.78.31-1.2.17-.8.26-1.19.2-.92.3-1.4.15-.8.21-1.2.19-1,.29-1.59c.07-.39.12-.78.17-1.18.1-.59.18-1.17.27-1.78.05-.38.09-.77.14-1.13l.24-2c0-.35.08-.71.11-1.06.09-.74.16-1.47.23-2.23,0-.3.05-.63.08-.93.07-.81.14-1.62.2-2.44,0-.29.05-.58.06-.88.06-.87.13-1.73.17-2.62,0-.23,0-.46,0-.69l.15-2.87c0-.19,0-.38,0-.56.05-1,.08-2,.12-3.05,0-.14,0-.28,0-.43q0-1.6.09-3.18v-.11h0c.28-12.59-.16-25.24-.88-33.74h0a2.12,2.12,0,0,0,0-.24c-.07-.82-.15-1.6-.22-2.33,0-.32-.06-.6-.09-.9-.05-.48-.11-.95-.16-1.4,0-.27-.07-.55-.11-.81-.06-.44-.12-.81-.18-1.19,0-.21-.06-.42-.1-.61-.08-.52-.18-1-.27-1.4a13.72,13.72,0,0,0-2.9-1.51l-.15-.06a18.55,18.55,0,0,0-3.35-1l-.07,0h0c-8.12-1.64-18.57.15-23.08.15-2.06,1.1-4,10.61-7.22,21.09-.41,1.36-.83,2.7-1.27,4.06,0,0,0,.08,0,.1-.94,2.85-2,5.68-3.1,8.37v0c-.57,1.32-1.16,2.62-1.8,3.87a.61.61,0,0,1-.05.12c-.63,1.25-1.29,2.44-2,3.56,0,0,0,0,0,.05a23.35,23.35,0,0,1-7.42,7.95h0A12.23,12.23,0,0,1,99,196.6C73.16,193.07,42.61,228.68,73.4,233.9Z" fill="#068ecd"/><path d="M165,243.35h.07l15-67.63L165,172.39l-1.13,5.06c.36,23.35-1.35,52.21-9,58.14-5.08,4-15.62,6-31.32,6a271.89,271.89,0,0,1-27.8-1.66v3.85h25.48L118,262H95l-7.86,11.78h88.43L167.71,262H143.26L140,243.78h25v-.43Z" fill="#068ecd"/><path d="M99.21,193.66l.88,0c7.57,0,12.85-9.71,16.66-20.17-5.7,6.59-12.12,11.63-18.26,11.24C91.1,184.87,89.83,190.93,99.21,193.66Z" fill="#068ecd"/><path d="M72.91,236.81A24.14,24.14,0,0,1,63,233.15c-4.27,6.74-8.11,13-10.5,17h-7v10.64H79.83V250.13h-.56l7.78-11.21C82.36,238.31,77.61,237.61,72.91,236.81Z" fill="#068ecd"/></svg>