<svg xmlns="http://www.w3.org/2000/svg" viewBox="0 0 274.51 337.3"><ellipse cx="220.44" cy="87.31" rx="20.53" ry="23.41" fill="#068ecd"/><path d="M233.94,120.77c-7.42-6.67-20.32-3-26.73-1-5,2.12-19.39,4.93-27.88,6.47A9.34,9.34,0,0,0,178,123.2a7.92,7.92,0,0,0-7.61-3.5,7.87,7.87,0,0,0-10-2.17,7.81,7.81,0,0,0-10.55-.49,9.23,9.23,0,0,0-3.17,6,9.84,9.84,0,0,0,.62,4.77,20.12,20.12,0,0,0-7.78,7.37c-5.43,8.93-4,20.75,3,27.79h-1.45l-.58,1.76a10.17,10.17,0,0,0-.45,4.73l-7-5.16-.69.58-.37-.58S100.45,185,89.4,175.56c-6.33-4.56-10.48,2.66,1.95,12.63,2.8,2.23,6.67,2.7,11,2.12L87.07,204.14c-10.31,0-20.85.12-23.18.47-4.8.76-30.34,48.34-30.34,48.34l21.61,0,18.29-29.12h35.46v-.23c2.31-2.41,33.88-35.54,37.49-39.34a18.81,18.81,0,0,0,2.7-3.4c.29.16.58.34.87.48v9l-35.68,38.86H71.16v14.07H92.09L89.44,259.8H70.56L64.1,270.52h72.63l-6.45-10.72H110.19l-2.65-16.52h20.52v-9.34L150,210.08v63.11h35.1V163.32l-2.4,0-14.19-.14a21.32,21.32,0,0,0,3.14-4,22,22,0,0,0,2.45-5.7,7.48,7.48,0,0,0,3.63.93,7.72,7.72,0,0,0,5-1.87,9.31,9.31,0,0,0,3.17-6,9.82,9.82,0,0,0-1.62-6.75,8.07,8.07,0,0,0-.59-.75,5.62,5.62,0,0,0,.09-.92c9.77-1.58,23.26-3.42,23.19-1.62-.17,4.83-2.08,53.46-.39,55.06l-3.5,36,3.1,35.42h-9.06V273.4h30.8V196.08c3.63-.79,6.39-2.91,6.86-7.29C236.25,175,242.22,128.22,233.94,120.77ZM180.84,141a5.08,5.08,0,0,1,.84.94,5.79,5.79,0,0,1,1,4.11,5.54,5.54,0,0,1-1.92,3.67,4.6,4.6,0,0,1-6,.08c.83-7.74-2.15-15.69-8.4-20.34a17.78,17.78,0,0,0-16.1-2.84,6,6,0,0,1-.42-3.05,5.63,5.63,0,0,1,1.94-3.67,4.79,4.79,0,0,1,7,1l1,1.41,1.28-1.09a4.79,4.79,0,0,1,7,1.06l1.33-1-1.16,1.32.65,1.11,1.14-.35a4.79,4.79,0,0,1,5.34,2,5.93,5.93,0,0,1,.69,1.49l-3.25.56,1,12.39s2.71-.5,6.57-1.15c0,.12,0,.23-.08.35l-.39,1.2Z" fill="#068ecd"/><ellipse cx="159.59" cy="101.36" rx="4.04" ry="4.47" fill="#068ecd"/><ellipse cx="174.92" cy="110.73" rx="4.04" ry="4.47" fill="#068ecd"/><ellipse cx="170.89" cy="96.25" rx="3.06" ry="3.38" fill="#068ecd"/><ellipse cx="163.63" cy="87.31" rx="1.78" ry="1.97" fill="#068ecd"/><ellipse cx="176.7" cy="81.36" rx="1.78" ry="1.97" fill="#068ecd"/></svg>