<svg xmlns="http://www.w3.org/2000/svg" viewBox="0 0 324.66 330.52"><path d="M291.38,166.64c-46.14,17.09-111.62,20.53-192.86,12.17,7.11-4.4,12.63-7.73,15.57-8.81,10.19-3.78,34.83-17.3,34.83-17.3s3,7.76,5,6.45,85.28-56.35,85.28-56.35-3.84-27-17.55-18.27c-9.05,5.81-89.83,57.54-143.59,92-5.47-.68-11-1.38-16.62-2.15-6.14-1.09-7.17,5.76-1.93,14L30,207.3s-3.71,5.24,1.05,6.44c11.73-3.42,24.8-9.82,37.13-16.72,42.67,23.43,208,8.06,218.87,3.69C298.24,196.24,298.1,159.23,291.38,166.64ZM80.61,192a3.75,3.75,0,1,1,3.1-4.32A3.77,3.77,0,0,1,80.61,192Z" fill="#068ecd"/></svg>